<?xml version="1.0" encoding="UTF-8" standalone="no"?>
<!-- Created with Inkscape (http://www.inkscape.org/) -->

<svg
   xmlns:dc="http://purl.org/dc/elements/1.1/"
   xmlns:cc="http://creativecommons.org/ns#"
   xmlns:rdf="http://www.w3.org/1999/02/22-rdf-syntax-ns#"
   xmlns:svg="http://www.w3.org/2000/svg"
   xmlns="http://www.w3.org/2000/svg"
   xmlns:xlink="http://www.w3.org/1999/xlink"
   xmlns:sodipodi="http://sodipodi.sourceforge.net/DTD/sodipodi-0.dtd"
   xmlns:inkscape="http://www.inkscape.org/namespaces/inkscape"
   width="300"
   height="300"
   viewBox="0 0 79.374999 79.375002"
   version="1.1"
   id="svg8"
   inkscape:version="0.92.3 (2405546, 2018-03-11)"
   sodipodi:docname="chough_guitars.svg"
   inkscape:export-filename="D:\chough_logo.png"
   inkscape:export-xdpi="320"
   inkscape:export-ydpi="320">
  <defs
     id="defs2">
    <circle
       r="25.748199"
       cy="-64.291656"
       cx="-155.93448"
       id="circle865-4"
       style="opacity:1;fill:none;fill-opacity:1;stroke:#c5c5c5;stroke-width:0.1;stroke-linecap:round;stroke-linejoin:round;stroke-miterlimit:4;stroke-dasharray:none;stroke-dashoffset:0;stroke-opacity:1;paint-order:markers stroke fill"
       transform="rotate(-147.91238)" />
  </defs>
  <sodipodi:namedview
     id="base"
     pagecolor="#ffffff"
     bordercolor="#666666"
     borderopacity="1.0"
     inkscape:pageopacity="1"
     inkscape:pageshadow="2"
     inkscape:zoom="1.979899"
     inkscape:cx="211.05522"
     inkscape:cy="199.49585"
     inkscape:document-units="mm"
     inkscape:current-layer="layer1"
     showgrid="false"
     inkscape:window-width="2400"
     inkscape:window-height="1471"
     inkscape:window-x="2391"
     inkscape:window-y="-9"
     inkscape:window-maximized="1"
     units="px" />
  <metadata
     id="metadata5">
    <rdf:RDF>
      <cc:Work
         rdf:about="">
        <dc:format>image/svg+xml</dc:format>
        <dc:type
           rdf:resource="http://purl.org/dc/dcmitype/StillImage" />
        <dc:title></dc:title>
      </cc:Work>
    </rdf:RDF>
  </metadata>
  <g
     inkscape:label="Layer 1"
     inkscape:groupmode="layer"
     id="layer1"
     transform="translate(0,-217.62499)">
    <circle
       r="26.219677"
       cy="-199.28662"
       cx="-167.53592"
       id="circle865"
       style="opacity:1;fill:none;fill-opacity:1;stroke:#ffffff;stroke-width:0.10183112;stroke-linecap:round;stroke-linejoin:round;stroke-miterlimit:4;stroke-dasharray:none;stroke-dashoffset:0;stroke-opacity:1;paint-order:markers stroke fill"
       transform="rotate(-148.84106)"
       inkscape:export-xdpi="336.13651"
       inkscape:export-ydpi="336.13651" />
    <circle
       transform="matrix(-0.97253131,-0.23277209,-0.23277209,0.97253131,0,0)"
       style="opacity:1;fill:none;fill-opacity:1;stroke:#fffefe;stroke-width:0.12632291;stroke-linecap:round;stroke-linejoin:round;stroke-miterlimit:4;stroke-dasharray:none;stroke-dashoffset:0;stroke-opacity:1;paint-order:markers stroke fill"
       id="circle905"
       cx="-98.990021"
       cy="240.65678"
       r="32.525871"
       inkscape:export-xdpi="336.13651"
       inkscape:export-ydpi="336.13651" />
    <path
       style="fill:#000000;stroke-width:0.26980522"
       d="m 52.551855,277.97148 c -0.59358,-0.0481 -2.41477,-0.27242 -4.04708,-0.49844 -3.03662,-0.42047 -6.977815,-0.89923 -8.903579,-1.08157 -1.080835,-0.10233 -3.091596,-0.38719 -6.880034,-0.97468 l -2.023539,-0.31379 0.944318,-0.32238 0.944318,-0.32239 -1.686283,-0.1912 c -0.927455,-0.10517 -1.686282,-0.32075 -1.686282,-0.47908 0,-0.16156 -0.295934,-0.23129 -0.674513,-0.15892 -0.712377,0.13618 -0.905691,-0.15917 -0.337256,-0.51527 0.185491,-0.1162 1.438125,-0.17514 2.783633,-0.13098 l 2.446377,0.0803 0.940854,-1.04141 c 1.189264,-1.31638 2.754862,-4.03112 2.532368,-4.39112 -0.223503,-0.36164 -0.875872,-0.34954 -0.998557,0.0185 -0.06349,0.19047 -0.585805,0.10592 -1.506413,-0.24388 -1.135381,-0.43141 -1.40922,-0.46186 -1.40922,-0.15667 0,0.20833 -0.141136,0.37878 -0.313636,0.37878 -0.49687,0 -2.862123,-1.60269 -3.530398,-2.3922 -0.334264,-0.3949 -1.032696,-1.01376 -1.552071,-1.37525 -0.519375,-0.3615 -1.058237,-0.84547 -1.197473,-1.07551 -0.139236,-0.23003 -1.00337,-1.14672 -1.920297,-2.03707 -2.026161,-1.96745 -2.837606,-3.85242 -2.907285,-6.75358 -0.04068,-1.69367 0.06209,-2.11551 0.958488,-3.93419 0.552227,-1.1204 1.443317,-2.45214 1.980198,-2.9594 0.536881,-0.50728 1.18894,-1.37823 1.449019,-1.93544 0.433866,-0.92956 4.390119,-5.61341 4.917608,-5.822 0.125168,-0.0495 0.147442,0.11883 0.0495,0.37407 -0.12396,0.32304 -0.06478,0.4263 0.194728,0.33979 0.205045,-0.0683 0.436863,-0.37638 0.515153,-0.68453 0.07828,-0.30814 0.79738,-1.05085 1.597979,-1.65047 1.339466,-1.00321 1.585403,-1.08837 3.081674,-1.06715 1.445271,0.0205 1.733365,0.12137 2.591444,0.90747 0.913415,0.8368 0.965234,0.97637 0.962254,2.59174 -0.0016,0.93903 -0.06244,2.056 -0.134903,2.48217 -0.121502,0.71457 0.02566,0.87693 1.891788,2.0872 2.973168,1.92822 3.688898,2.27465 6.070618,2.93841 2.54941,0.71049 4.1301,1.45265 3.68275,1.72914 -0.52502,0.32448 -0.34516,1.23601 0.29688,1.50456 1.8931,0.79183 7.34983,1.94937 10.84607,2.3008 4.36729,0.43897 5.27479,0.6082 5.27479,0.98362 0,0.47293 -2.28609,1.29466 -3.64237,1.30924 -1.24694,0.0134 -1.30929,0.0446 -0.82392,0.41164 0.8571,0.64823 0.19683,0.90697 -2.52933,0.99119 -1.44077,0.0446 -2.57881,0.19928 -2.63129,0.35783 -0.0509,0.15365 0.50919,0.73821 1.24455,1.299 1.01922,0.77725 2.0216,1.2048 4.21713,1.79871 1.58407,0.42851 3.08777,0.96702 3.34156,1.19669 0.2538,0.22969 0.60366,0.41761 0.77746,0.41761 0.17381,0 0.31602,0.12142 0.31602,0.26981 0,0.39891 -4.98206,0.32414 -8.83854,-0.13266 -2.45381,-0.29064 -3.49841,-0.31599 -4.04707,-0.0982 -0.40676,0.16145 -1.71086,0.43848 -2.898,0.61562 -1.9975,0.29805 -2.15204,0.36671 -2.0727,0.92086 0.0471,0.32932 -0.27101,1.1786 -0.70706,1.88728 -0.43605,0.70866 -0.88638,1.58535 -1.00073,1.9482 -0.11435,0.36284 -0.85852,1.74032 -1.65372,3.06106 -0.79521,1.32073 -1.44582,2.55003 -1.44582,2.73178 0,0.18174 0.30316,0.33043 0.67368,0.33043 0.37053,0 0.85649,0.15172 1.07992,0.33716 0.53211,0.4416 4.90357,0.37921 10.25674,-0.1464 3.12308,-0.30665 4.79185,-0.33641 7.28474,-0.1299 1.77851,0.14732 4.10523,0.26978 5.17047,0.27213 1.43364,0.003 2.05214,0.1196 2.38073,0.44818 0.72403,0.72404 0.0355,0.89647 -3.59771,0.90099 -2.80964,0.003 -3.62811,0.10638 -5.26121,0.66141 -1.27406,0.43301 -2.90061,0.72175 -4.76691,0.8462 -3.49382,0.23296 -4.44193,0.51618 -2.70786,0.80888 0.94774,0.15997 1.09145,0.24741 0.67452,0.41043 -0.52974,0.20711 -2.0058,0.23156 -4.03727,0.0669 z M 34.609799,274.1026 c 0,-0.14839 -0.05354,-0.2698 -0.11898,-0.2698 -0.06544,0 -0.194016,0.12141 -0.285728,0.2698 -0.09172,0.1484 -0.03817,0.26982 0.11898,0.26982 0.15715,0 0.285728,-0.12142 0.285728,-0.26982 z m 8.803826,-0.96307 c 1.20091,-1.27331 1.35067,-1.97975 0.65992,-3.11279 -0.30698,-0.50354 -0.5586,-1.24338 -0.55917,-1.64409 -0.002,-1.15921 -0.66899,-1.31465 -2.481825,-0.57802 -0.876201,0.35603 -1.703529,0.57908 -1.838504,0.49565 -0.422744,-0.26126 -1.309193,0.48217 -2.313284,1.94005 -1.234126,1.7919 -1.156809,2.40994 0.286817,2.29267 0.801506,-0.0652 1.155518,0.0437 1.474384,0.45356 0.445374,0.57234 1.799643,1.05146 3.085815,1.09171 0.56061,0.0175 1.030987,-0.24438 1.685847,-0.93874 z m 2.11177,-4.14458 c 0.0853,-0.13813 0.0318,-0.32743 -0.11899,-0.42063 -0.15081,-0.0932 -0.2742,0.0198 -0.2742,0.25116 0,0.47392 0.1619,0.5437 0.39319,0.16947 z m -9.996641,-25.02369 c 0.236539,-0.6942 0.430071,-1.34641 0.430071,-1.44934 0,-0.10294 -0.485649,-0.17442 -1.079222,-0.15886 -0.593571,0.0156 -1.07922,0.14771 -1.07922,0.29365 0,0.49425 0.881343,2.57674 1.090514,2.57674 0.114283,0 0.401319,-0.56798 0.637857,-1.26219 z m 0.834779,-0.0869 c 0.09171,-0.14839 0.03817,-0.2698 -0.11898,-0.2698 -0.15715,0 -0.285728,0.12141 -0.285728,0.2698 0,0.14839 0.05354,0.2698 0.118979,0.2698 0.06544,0 0.194017,-0.12141 0.285729,-0.2698 z"
       id="path826"
       inkscape:connector-curvature="0"
       inkscape:export-xdpi="336.13651"
       inkscape:export-ydpi="336.13651" />
    <path
       style="fill:#ffffff;fill-opacity:1;stroke:none;stroke-width:0.26458332px;stroke-linecap:butt;stroke-linejoin:miter;stroke-opacity:1"
       d="m 60.927632,274.34734 c -0.1107,0.18449 -0.522313,0.23311 -0.899374,0.85835 -0.43503,0.58005 -0.711226,1.35512 -0.260546,2.03113 0.27364,0.41046 0.606423,0.22163 1.019853,0.32499 0.51797,0.12949 0.9833,0.42226 1.48828,0.59059 0.33618,0.11206 0.68611,0.20709 1.01582,0.33073 0.32666,0.1225 0.76242,0.39998 1.13392,0.3071 0.87388,0.54336 0.16338,-0.10707 0.23624,-0.16536 0.46534,-0.37228 0.80819,-0.31409 2.81462,-2.56758 1.74658,-2.60784 2.93994,-3.95857 2.35893,-4.68484 -0.34302,-0.42877 -1.51256,-0.0789 -2.03162,-0.16536 -0.69879,-0.11647 -1.42094,-0.12512 -2.12612,-0.0709 -0.47036,0.0362 -0.95161,-0.0459 -1.41741,0.0472 -0.6471,0.12942 -1.34075,0.56117 -1.77177,0.99219 -0.10424,0.10424 -0.140622,0.24035 -0.248882,0.34862 -0.432165,0.048 -0.670218,0.4612 -0.830973,0.69662 -0.160755,0.23541 -0.515468,0.52256 -0.480968,1.12652 z"
       id="path935"
       inkscape:connector-curvature="0"
       sodipodi:nodetypes="cccccccccccccsccc"
       inkscape:export-xdpi="336.13651"
       inkscape:export-ydpi="336.13651" />
    <circle
       style="opacity:1;fill:none;fill-opacity:1;stroke:#000000;stroke-width:2;stroke-linecap:round;stroke-linejoin:round;stroke-miterlimit:4;stroke-dasharray:none;stroke-dashoffset:0;stroke-opacity:1;paint-order:markers stroke fill"
       id="path828"
       cx="40.25272"
       cy="257.22198"
       r="36.782269"
       inkscape:export-xdpi="336.13651"
       inkscape:export-ydpi="336.13651" />
    <text
       xml:space="preserve"
       style="font-style:normal;font-weight:normal;font-size:10.58333302px;line-height:1.25;font-family:sans-serif;letter-spacing:0px;word-spacing:0px;fill:#000000;fill-opacity:1;stroke:none;stroke-width:0.26458332"
       id="text842"
       inkscape:transform-center-x="-21.482047"
       inkscape:transform-center-y="23.779379"
       inkscape:export-xdpi="336.13651"
       inkscape:export-ydpi="336.13651"><textPath
         xlink:href="#circle865"
         id="textPath867"><tspan
   style="stroke-width:0.26458332"
   id="tspan840"><tspan
     id="tspan838"
     style="font-style:normal;font-variant:normal;font-weight:bold;font-stretch:normal;font-family:Georgia;-inkscape-font-specification:'Georgia Bold';stroke-width:0.26458332"
     y="90.488441"
     x="69.531227">CHOUGH</tspan></tspan></textPath></text>
    <text
       xml:space="preserve"
       style="font-style:normal;font-weight:normal;font-size:10.58333302px;line-height:1.25;font-family:sans-serif;letter-spacing:0px;word-spacing:0px;fill:#000000;fill-opacity:1;stroke:none;stroke-width:0.99999994"
       id="text842-5"
       inkscape:transform-center-x="-21.48205"
       inkscape:transform-center-y="-23.779375"
       inkscape:export-xdpi="336.13651"
       inkscape:export-ydpi="336.13651"><textPath
         xlink:href="#circle905"
         id="textPath915"
         style="letter-spacing:1.06362498px"><tspan
           id="tspan900"
           style="font-style:normal;font-variant:normal;font-weight:normal;font-stretch:normal;font-family:Georgia;-inkscape-font-specification:Georgia;letter-spacing:1.06362498px"
           dx="0">stringed instruments</tspan></textPath></text>
    <circle
       style="opacity:1;fill:#000000;fill-opacity:1;stroke:none;stroke-width:2;stroke-linecap:round;stroke-linejoin:round;stroke-miterlimit:4;stroke-dasharray:none;stroke-dashoffset:0;stroke-opacity:1;paint-order:markers stroke fill"
       id="path918"
       cx="12.879086"
       cy="245.69371"
       r="1.2284226"
       inkscape:export-xdpi="336.13651"
       inkscape:export-ydpi="336.13651" />
    <circle
       style="opacity:1;fill:#000000;fill-opacity:1;stroke:none;stroke-width:2;stroke-linecap:round;stroke-linejoin:round;stroke-miterlimit:4;stroke-dasharray:none;stroke-dashoffset:0;stroke-opacity:1;paint-order:markers stroke fill"
       id="path918-8"
       cx="66.929688"
       cy="244.46529"
       r="1.2284226"
       inkscape:export-xdpi="336.13651"
       inkscape:export-ydpi="336.13651" />
  </g>
</svg>
